<svg width="64" height="64" viewBox="0 0 64 64" fill="none" xmlns="http://www.w3.org/2000/svg">
<rect width="64" height="64" fill="white"/>
<rect width="64" height="64" fill="#F3E6D2"/>
<path d="M36.3008 36.1328H26.0469L24.25 40.3125C23.8073 41.3411 23.5859 42.1094 23.5859 42.6172C23.5859 43.0208 23.7747 43.3789 24.1523 43.6914C24.543 43.9909 25.3763 44.1862 26.6523 44.2773V45H18.3125V44.2773C19.4193 44.082 20.1354 43.8281 20.4609 43.5156C21.125 42.8906 21.8607 41.6211 22.668 39.707L31.9844 17.9102H32.668L41.8867 39.9414C42.6289 41.7122 43.2995 42.8646 43.8984 43.3984C44.5104 43.9193 45.3568 44.2122 46.4375 44.2773V45H35.9883V44.2773C37.043 44.2253 37.7526 44.0495 38.1172 43.75C38.4948 43.4505 38.6836 43.0859 38.6836 42.6562C38.6836 42.0833 38.4232 41.1784 37.9023 39.9414L36.3008 36.1328ZM35.7539 34.6875L31.2617 23.9844L26.6523 34.6875H35.7539Z" fill="#333333"/>
</svg>
