<svg width="102" height="98" viewBox="0 0 102 98" fill="none" xmlns="http://www.w3.org/2000/svg">
<path d="M64.8828 66.0781H27.9688L21.5 81.125C19.9062 84.8281 19.1094 87.5938 19.1094 89.4219C19.1094 90.875 19.7891 92.1641 21.1484 93.2891C22.5547 94.3672 25.5547 95.0703 30.1484 95.3984V98H0.125V95.3984C4.10938 94.6953 6.6875 93.7812 7.85938 92.6562C10.25 90.4062 12.8984 85.8359 15.8047 78.9453L49.3438 0.476562H51.8047L84.9922 79.7891C87.6641 86.1641 90.0781 90.3125 92.2344 92.2344C94.4375 94.1094 97.4844 95.1641 101.375 95.3984V98H63.7578V95.3984C67.5547 95.2109 70.1094 94.5781 71.4219 93.5C72.7812 92.4219 73.4609 91.1094 73.4609 89.5625C73.4609 87.5 72.5234 84.2422 70.6484 79.7891L64.8828 66.0781ZM62.9141 60.875L46.7422 22.3438L30.1484 60.875H62.9141Z" fill="black"/>
</svg>
