<svg width="29" height="28" viewBox="0 0 29 28" fill="none" xmlns="http://www.w3.org/2000/svg">
<path d="M18.3008 19.1328H8.04688L6.25 23.3125C5.80729 24.3411 5.58594 25.1094 5.58594 25.6172C5.58594 26.0208 5.77474 26.3789 6.15234 26.6914C6.54297 26.9909 7.3763 27.1862 8.65234 27.2773V28H0.3125V27.2773C1.41927 27.082 2.13542 26.8281 2.46094 26.5156C3.125 25.8906 3.86068 24.6211 4.66797 22.707L13.9844 0.910156H14.668L23.8867 22.9414C24.6289 24.7122 25.2995 25.8646 25.8984 26.3984C26.5104 26.9193 27.3568 27.2122 28.4375 27.2773V28H17.9883V27.2773C19.043 27.2253 19.7526 27.0495 20.1172 26.75C20.4948 26.4505 20.6836 26.0859 20.6836 25.6562C20.6836 25.0833 20.4232 24.1784 19.9023 22.9414L18.3008 19.1328ZM17.7539 17.6875L13.2617 6.98438L8.65234 17.6875H17.7539Z" fill="black"/>
</svg>
